<?xml version="1.0" standalone="no"?>
<!DOCTYPE svg PUBLIC "-//W3C//DTD SVG 20010904//EN"
 "http://www.w3.org/TR/2001/REC-SVG-20010904/DTD/svg10.dtd">
<svg version="1.0" xmlns="http://www.w3.org/2000/svg"
 width="300.000000pt" height="305.000000pt" viewBox="0 0 300.000000 305.000000"
 preserveAspectRatio="xMidYMid meet">
<metadata>
Created by potrace 1.10, written by Peter Selinger 2001-2011
</metadata>
<g transform="translate(0.000000,305.000000) scale(0.100000,-0.100000)"
fill="#000000" stroke="none">
<path d="M791 2690 c-84 -18 -176 -91 -207 -166 -8 -19 -14 -60 -14 -92 0 -48
7 -73 35 -128 19 -38 47 -82 63 -97 l29 -28 38 58 c76 115 212 234 319 278 32
14 35 18 25 36 -20 38 -82 100 -119 119 -45 23 -113 31 -169 20z"/>
<path d="M1830 2654 c-43 -24 -140 -111 -140 -125 0 -4 30 -24 68 -45 99 -55
236 -196 289 -299 58 -113 83 -203 90 -320 10 -196 -45 -346 -176 -475 -69
-68 -95 -85 -281 -182 -231 -120 -291 -141 -399 -140 -111 0 -168 26 -293 128
-177 145 -241 208 -278 272 -19 34 -38 62 -41 62 -9 0 -54 -105 -77 -181 -106
-348 8 -748 264 -922 95 -65 170 -91 266 -91 83 -1 110 11 152 68 33 43 27
132 -12 223 -52 118 -42 206 32 271 60 53 154 43 216 -23 20 -21 25 -39 28
-94 4 -68 3 -71 -57 -186 -68 -132 -78 -168 -61 -220 32 -96 123 -143 251
-131 90 8 209 47 289 93 87 51 204 171 271 275 53 85 55 87 101 93 177 25 308
181 358 425 19 89 21 128 17 260 -5 185 -24 265 -96 417 -52 107 -78 143 -36
49 33 -76 55 -163 62 -254 12 -162 -61 -292 -166 -292 -47 0 -61 22 -61 97 0
237 -92 528 -219 693 -28 36 -50 68 -51 72 0 4 14 27 30 52 60 88 75 180 45
266 -54 153 -255 238 -385 164z"/>
<path d="M953 1894 c-127 -63 -153 -295 -44 -387 56 -46 93 -33 126 47 9 21
35 68 57 103 48 77 60 141 34 191 -30 58 -107 78 -173 46z m57 -174 c15 -28
-4 -60 -35 -60 -31 0 -50 32 -35 60 6 12 21 20 35 20 14 0 29 -8 35 -20z"/>
<path d="M1472 1870 c-74 -45 -78 -133 -13 -253 21 -39 44 -89 51 -110 24 -76
74 -89 136 -35 49 43 74 99 74 170 0 171 -136 296 -248 228z m122 -176 c21
-21 20 -37 -5 -60 -15 -13 -24 -16 -36 -8 -32 20 -38 41 -19 63 23 25 39 26
60 5z"/>
<path d="M1124 1316 c-8 -21 11 -44 53 -61 18 -8 38 -25 45 -39 14 -33 35 -33
59 -2 11 14 36 30 57 37 47 15 64 28 60 48 -3 13 -20 16 -93 17 -50 0 -109 4
-132 8 -35 6 -44 5 -49 -8z"/>
</g>
</svg>
